<svg width="1280" height="720" xmlns="http://www.w3.org/2000/svg" xmlns:xlink="http://www.w3.org/1999/xlink" overflow="hidden"><defs><clipPath id="clip0"><rect x="0" y="0" width="1280" height="720"/></clipPath></defs><g clip-path="url(#clip0)"><rect x="0" y="0" width="1280" height="720" fill="#FFFFFF"/><path d="M0 0C20.5303-0.279895 27.9247 3.79853 51.3128 0 74.7008-3.79853 81.8303 2.10982 98.3494 0 114.868-2.10982 137.107 0.0970079 156.076 0 175.045-0.0970079 192.935 0.0806299 213.803 0 214.001 1.44336 213.616 3.60231 213.803 4.7999 197.622 4.95906 184.964-0.368819 164.628 4.7999 144.293 9.96861 135.732-0.291444 115.454 4.7999 95.175 9.89123 83.8803 1.88661 57.7268 4.7999 31.5733 7.71318 24.5089 2.3747 0 4.7999-0.0574278 3.41113 0.429186 1.78383 0 0Z" fill="#FFFFFF" fill-rule="evenodd" transform="matrix(0.733586 0.679596 0.679596 -0.733586 346.359 261.413)"/><path d="M0 0C17.1359-2.28693 37.1761 0.0354856 51.3128 0 65.4494-0.0354856 85.3348 4.00556 104.763 0 124.192-4.00556 147.063 1.01743 158.214 0 169.365-1.01743 186.895 6.3094 213.803 0 213.928 1.56934 213.362 3.4464 213.803 4.7999 201.681 8.69165 183.793 2.16357 160.352 4.7999 136.912 7.43622 133.611 1.76441 111.178 4.7999 88.7437 7.83538 73.3287 2.64997 62.0028 4.7999 50.677 6.94982 14.9856 3.80063 0 4.7999-0.155066 3.50929 0.421732 1.60315 0 0Z" stroke="#2F5597" stroke-width="7" stroke-miterlimit="8" fill="none" fill-rule="evenodd" transform="matrix(0.733586 0.679596 0.679596 -0.733586 346.359 261.413)"/><path d="M318.5 429.5C338.925 427.145 357.283 433.283 372.74 429.5 388.198 425.717 408.433 430.894 422.46 429.5 436.487 428.106 470.466 431.054 483.48 429.5 496.495 427.946 530.944 431.57 544.5 429.5 544.698 431.004 544.313 433.253 544.5 434.5 526.857 437.281 509.168 429.88 492.52 434.5 475.872 439.12 451.248 434.101 440.54 434.5 429.832 434.899 393.685 429.128 379.52 434.5 365.355 439.872 336.901 429.678 318.5 434.5 318.443 433.053 318.929 431.358 318.5 429.5Z" fill="#FFFFFF" fill-rule="evenodd"/><path d="M318.5 429.5C341.116 423.733 351.014 433.191 372.74 429.5 394.467 425.809 402.306 431.599 429.24 429.5 456.174 427.401 460.688 436.408 485.74 429.5 510.792 422.592 519.73 436.738 544.5 429.5 544.625 431.135 544.059 433.09 544.5 434.5 529.54 439.107 506.607 433.788 488 434.5 469.393 435.212 459.01 428.314 436.02 434.5 413.03 440.686 409.572 432.461 384.04 434.5 358.508 436.539 345.91 427.944 318.5 434.5 318.345 433.156 318.922 431.17 318.5 429.5Z" stroke="#2F528F" stroke-width="7" stroke-miterlimit="8" fill="none" fill-rule="evenodd"/><path d="M554.476 423.386C563.071 417.592 584.206 411.762 593.657 400.574 603.109 389.386 622.084 389.617 630.415 379.174 638.746 368.73 667.322 363.639 675.655 352.835 676.98 354.496 677.17 355.907 678.07 356.983 663.381 367.886 654.446 368.605 640.101 379.089 625.756 389.573 616.427 389.856 597.284 404.017 578.142 418.178 575.313 415.797 556.891 427.534 556.328 426.663 555.478 424.37 554.476 423.386Z" fill="#FFFFFF" fill-rule="evenodd"/><path d="M554.476 423.386C567.52 412.954 582.634 408.509 597.293 398.458 611.952 388.407 629.036 381.876 638.898 374.235 648.759 366.594 668.817 362.276 675.655 352.835 676.687 354.198 676.778 355.812 678.07 356.983 665.608 366.256 650.512 369.935 640.101 379.089 629.69 388.243 613.213 390.825 599.708 402.606 586.203 414.387 571.324 413.609 556.891 427.534 555.34 425.705 555.778 424.536 554.476 423.386Z" stroke="#2F528F" stroke-width="7" stroke-miterlimit="8" fill="none" fill-rule="evenodd"/><path d="M551.922 249.055C569.585 253.696 580.073 268.752 594.992 278.377 609.912 288.002 623.703 303.592 635.399 305.884 647.095 308.176 657.592 328.615 685.13 339.74 684.203 341.651 683.011 342.431 682.429 343.707 665.974 337.787 658.849 325.843 640.69 315.293 622.532 304.743 617.34 297.961 593.623 283.251 569.907 268.541 562.368 256.638 549.221 253.023 549.764 252.139 551.466 250.383 551.922 249.055Z" fill="#FFFFFF" fill-rule="evenodd"/><path d="M551.922 249.055C572.123 260.217 577.522 271.235 598.989 281.097 620.455 290.959 634.373 307.585 644.724 312.232 655.074 316.879 663.82 328.424 685.13 339.74 684.345 341.258 682.928 342.037 682.429 343.707 672.869 338.77 652.346 316.389 640.69 315.293 629.035 314.197 618.096 293.109 596.288 285.065 574.479 277.021 563.084 261.889 549.221 253.023 550.202 250.834 551.445 250.726 551.922 249.055Z" stroke="#2F528F" stroke-width="7" stroke-miterlimit="8" fill="none" fill-rule="evenodd"/><path d="M359.224 401.316C367.327 389.401 387.415 379.772 396.189 370.21 404.963 360.648 422.807 349.47 430.074 341.696 437.341 333.922 452.306 325.468 471.66 306.702 491.013 287.935 494.267 288.324 513.245 271.707 514.326 272.684 515.422 274.584 516.336 275.38 508.431 286.073 495.118 289.498 480.911 305.19 466.703 320.881 452.409 323.93 445.486 335 438.563 346.069 418.059 349.846 403.9 369.994 389.742 390.142 379.494 384.907 362.314 404.988 361.376 403.963 360.701 402.404 359.224 401.316Z" fill="#FFFFFF" fill-rule="evenodd"/><path d="M359.224 401.316C369.877 391.35 379.649 384.222 396.189 370.21 412.729 356.198 415.635 353.847 434.694 337.808 453.753 321.768 465.037 316.554 473.2 305.406 481.362 294.257 501.615 288.465 513.245 271.707 514.352 272.827 515.127 274.628 516.336 275.38 501.524 292.165 491.967 291.224 477.83 307.782 463.694 324.34 454.561 326.589 442.405 337.592 430.25 348.595 414.01 359.122 406.981 367.402 399.951 375.682 381.642 382.958 362.314 404.988 361.365 404.101 360.579 402.271 359.224 401.316Z" stroke="#FF0000" stroke-width="7" stroke-miterlimit="8" fill="none" fill-rule="evenodd"/><path d="M311.5 237.5C331.925 235.616 350.283 240.527 365.74 237.5 381.198 234.474 401.433 238.615 415.46 237.5 429.487 236.385 463.466 238.743 476.48 237.5 489.495 236.257 523.944 239.156 537.5 237.5 537.698 238.703 537.313 240.502 537.5 241.5 519.857 243.725 502.168 237.804 485.52 241.5 468.872 245.196 444.248 241.181 433.54 241.5 422.832 241.819 386.685 237.203 372.52 241.5 358.355 245.797 329.901 237.642 311.5 241.5 311.443 240.343 311.929 238.987 311.5 237.5Z" fill="#FFFFFF" fill-rule="evenodd"/><path d="M311.5 237.5C334.116 232.886 344.014 240.453 365.74 237.5 387.467 234.547 395.306 239.179 422.24 237.5 449.174 235.821 453.688 243.026 478.74 237.5 503.792 231.974 512.73 243.29 537.5 237.5 537.625 238.808 537.059 240.372 537.5 241.5 522.54 245.186 499.607 240.93 481 241.5 462.393 242.07 452.01 236.551 429.02 241.5 406.03 246.449 402.572 239.869 377.04 241.5 351.508 243.131 338.91 236.255 311.5 241.5 311.345 240.425 311.922 238.836 311.5 237.5Z" stroke="#2F528F" stroke-width="7" stroke-miterlimit="8" fill="none" fill-rule="evenodd"/><path d="M382.5 238C379.011 223.394 391.556 216.993 411.5 215.5 428.457 215.701 437.508 225.67 440.5 238 438.774 252.133 427.413 261.076 411.5 260.5 394.944 260.201 382.813 250.578 382.5 238Z" fill="#FFFFFF" fill-rule="evenodd"/><path d="M382.5 238C385.811 225.971 397.583 211.124 411.5 215.5 426.728 215.378 439.666 226.369 440.5 238 440.263 248.137 427.171 260.986 411.5 260.5 395.72 260.634 385.672 251.199 382.5 238Z" stroke="#2F528F" stroke-width="4.66667" stroke-miterlimit="8" fill="none" fill-rule="evenodd"/><path d="M385.5 424.5C383.361 411.035 398.301 402.652 415 402.5 432.227 402.696 441.527 412.444 444.5 424.5 441.123 439.937 430.653 450.021 415 446.5 398.171 446.207 385.811 436.798 385.5 424.5Z" fill="#FFFFFF" fill-rule="evenodd"/><path d="M385.5 424.5C386.465 412.464 399.62 400.629 415 402.5 430.509 402.381 443.672 413.127 444.5 424.5 444.085 432.701 430.321 447.846 415 446.5 398.943 446.631 388.652 437.405 385.5 424.5Z" stroke="#2F528F" stroke-width="4.66667" stroke-miterlimit="8" fill="none" fill-rule="evenodd"/><path d="M362.5 366.5C360.325 353.035 375.518 344.652 392.5 344.5 410.019 344.696 419.477 354.444 422.5 366.5 419.066 381.937 408.419 392.021 392.5 388.5 375.386 388.207 362.816 378.798 362.5 366.5Z" fill="#FFFFFF" fill-rule="evenodd"/><path d="M362.5 366.5C363.481 354.464 376.859 342.629 392.5 344.5 408.272 344.381 421.658 355.127 422.5 366.5 422.078 374.701 408.081 389.846 392.5 388.5 376.171 388.631 365.705 379.405 362.5 366.5Z" stroke="#FF0000" stroke-width="4.66667" stroke-miterlimit="8" fill="none" fill-rule="evenodd"/><path d="M363.5 295C361.325 281.229 376.518 272.656 393.5 272.5 411.019 272.701 420.477 282.67 423.5 295 420.066 310.788 409.419 321.101 393.5 317.5 376.386 317.201 363.816 307.578 363.5 295Z" fill="#FFFFFF" fill-rule="evenodd"/><path d="M363.5 295C364.481 282.69 377.859 270.586 393.5 272.5 409.272 272.378 422.658 283.369 423.5 295 423.078 303.388 409.081 318.876 393.5 317.5 377.171 317.634 366.705 308.199 363.5 295Z" stroke="#2F528F" stroke-width="4.66667" stroke-miterlimit="8" fill="none" fill-rule="evenodd"/><path d="M583.5 290C580.011 275.394 592.556 268.993 612.5 267.5 629.457 267.701 638.508 277.67 641.5 290 639.774 304.133 628.413 313.076 612.5 312.5 595.944 312.201 583.813 302.578 583.5 290Z" fill="#FFFFFF" fill-rule="evenodd"/><path d="M583.5 290C586.811 277.971 598.583 263.124 612.5 267.5 627.728 267.378 640.666 278.369 641.5 290 641.263 300.137 628.171 312.986 612.5 312.5 596.72 312.634 586.672 303.199 583.5 290Z" stroke="#2F528F" stroke-width="4.66667" stroke-miterlimit="8" fill="none" fill-rule="evenodd"/><path d="M585.5 391.5C583.325 378.035 598.518 369.652 615.5 369.5 633.019 369.696 642.477 379.444 645.5 391.5 642.066 406.937 631.419 417.021 615.5 413.5 598.386 413.207 585.816 403.798 585.5 391.5Z" fill="#FFFFFF" fill-rule="evenodd"/><path d="M585.5 391.5C586.481 379.464 599.859 367.629 615.5 369.5 631.272 369.381 644.658 380.127 645.5 391.5 645.078 399.701 631.081 414.846 615.5 413.5 599.171 413.631 588.705 404.405 585.5 391.5Z" stroke="#2F528F" stroke-width="4.66667" stroke-miterlimit="8" fill="none" fill-rule="evenodd"/><path d="M492.5 197C489.011 182.394 501.556 175.993 521.5 174.5 538.457 174.701 547.508 184.67 550.5 197 548.774 211.133 537.413 220.076 521.5 219.5 504.944 219.201 492.813 209.578 492.5 197Z" fill="#FFFFFF" fill-rule="evenodd"/><path d="M492.5 197C495.811 184.971 507.583 170.124 521.5 174.5 536.728 174.378 549.666 185.369 550.5 197 550.263 207.137 537.171 219.986 521.5 219.5 505.72 219.634 495.672 210.199 492.5 197Z" stroke="#2F528F" stroke-width="4.66667" stroke-miterlimit="8" fill="none" fill-rule="evenodd"/><path d="M522.5 220.5C529.004 219.497 534.647 221.888 539.5 220.5 550.506 220.822 555.544 228.687 556.5 248 554.367 261.555 548.042 277.251 539.5 275.5 535.939 277.276 528.525 273.968 522.5 275.5 517.052 261.499 527.92 247.512 522.5 220.5Z" fill="#FFFFFF" fill-rule="evenodd"/><path d="M522.5 220.5C526.955 218.948 533.476 221.487 539.5 220.5 550.164 221.219 557.817 233.131 556.5 248 555.609 263.043 550.518 276.841 539.5 275.5 533.681 277.185 526.991 273.817 522.5 275.5 516.178 258.941 523.601 233.619 522.5 220.5Z" stroke="#2F528F" stroke-width="5" stroke-miterlimit="8" fill="none" fill-rule="evenodd"/><path d="M521.5 274.5C514.997 275.503 509.353 273.113 504.5 274.5 493.494 274.178 488.456 266.313 487.5 247 489.633 233.445 495.959 217.749 504.5 219.5 508.061 217.724 515.476 221.032 521.5 219.5 526.948 233.501 516.08 247.488 521.5 274.5Z" fill="#FFFFFF" fill-rule="evenodd"/><path d="M521.5 274.5C517.045 276.052 510.524 273.513 504.5 274.5 493.836 273.781 486.183 261.869 487.5 247 488.391 231.957 493.482 218.159 504.5 219.5 510.319 217.815 517.009 221.183 521.5 219.5 527.822 236.059 520.399 261.381 521.5 274.5Z" stroke="#2F528F" stroke-width="5" stroke-miterlimit="8" fill="none" fill-rule="evenodd"/><path d="M786.376 480.54C789.781 476.304 791.755 474.057 794.987 471.177 797.953 473.806 800.478 476.183 804.349 479.788 812.672 473.459 820.379 462.161 829.302 452.657 833.547 455.863 836.424 458.655 838.664 461.268 830.85 473.132 812.971 488.1 805.101 497.761 798.668 492.997 792.087 485.603 786.376 480.54Z" fill="#70AD47" fill-rule="evenodd"/><path d="M786.376 480.54C790.139 476.487 791.446 474.984 794.987 471.177 798.948 475.4 799.968 476.581 804.349 479.788 818.068 467.541 819.284 464.772 829.302 452.657 833.061 455.849 836.293 458.483 838.664 461.268 826.024 478.314 817.303 481.076 805.101 497.761 796.959 489.962 796.103 487.96 786.376 480.54Z" stroke="#507E32" stroke-width="4.33333" stroke-miterlimit="8" fill="none" fill-rule="evenodd"/><path d="M496.5 471.5C493.011 457.219 505.556 450.96 525.5 449.5 542.457 449.696 551.508 459.444 554.5 471.5 552.774 485.319 541.413 494.063 525.5 493.5 508.944 493.207 496.813 483.798 496.5 471.5Z" fill="#FFFFFF" fill-rule="evenodd"/><path d="M496.5 471.5C499.811 459.739 511.583 445.222 525.5 449.5 540.728 449.381 553.666 460.127 554.5 471.5 554.263 481.412 541.171 493.975 525.5 493.5 509.72 493.631 499.672 484.405 496.5 471.5Z" stroke="#2F528F" stroke-width="4.66667" stroke-miterlimit="8" fill="none" fill-rule="evenodd"/><path d="M672.5 389.5C669.011 375.219 681.556 368.96 701.5 367.5 718.457 367.696 727.508 377.444 730.5 389.5 728.774 403.319 717.413 412.063 701.5 411.5 684.944 411.207 672.813 401.798 672.5 389.5Z" fill="#FFFFFF" fill-rule="evenodd"/><path d="M672.5 389.5C675.811 377.739 687.583 363.222 701.5 367.5 716.728 367.381 729.666 378.127 730.5 389.5 730.263 399.412 717.171 411.975 701.5 411.5 685.72 411.631 675.672 402.405 672.5 389.5Z" stroke="#2F528F" stroke-width="4.66667" stroke-miterlimit="8" fill="none" fill-rule="evenodd"/><path d="M526.5 397.5C533.195 396.497 539.004 398.888 544 397.5 555.33 397.822 560.516 405.687 561.5 425 559.304 438.555 552.793 454.251 544 452.5 540.334 454.276 532.702 450.968 526.5 452.5 520.892 438.499 532.079 424.512 526.5 397.5Z" fill="#FFFFFF" fill-rule="evenodd"/><path d="M526.5 397.5C531.086 395.948 537.799 398.487 544 397.5 554.978 398.219 562.856 410.131 561.5 425 560.583 440.043 555.342 453.841 544 452.5 538.01 454.185 531.123 450.817 526.5 452.5 519.992 435.941 527.633 410.619 526.5 397.5Z" stroke="#2F528F" stroke-width="5" stroke-miterlimit="8" fill="none" fill-rule="evenodd"/><path d="M526.5 450.5C519.805 451.503 513.996 449.113 509 450.5 497.67 450.178 492.484 442.313 491.5 423 493.696 409.445 500.207 393.749 509 395.5 512.666 393.724 520.298 397.032 526.5 395.5 532.108 409.501 520.921 423.488 526.5 450.5Z" fill="#FFFFFF" fill-rule="evenodd"/><path d="M526.5 450.5C521.914 452.052 515.201 449.513 509 450.5 498.022 449.781 490.144 437.869 491.5 423 492.417 407.957 497.658 394.159 509 395.5 514.99 393.815 521.877 397.183 526.5 395.5 533.008 412.059 525.367 437.381 526.5 450.5Z" stroke="#2F528F" stroke-width="5" stroke-miterlimit="8" fill="none" fill-rule="evenodd"/><path d="M703.5 318.5C710.195 317.497 716.004 319.888 721 318.5 732.33 318.822 737.516 326.687 738.5 346 736.304 359.555 729.793 375.251 721 373.5 717.334 375.276 709.702 371.968 703.5 373.5 697.892 359.499 709.079 345.512 703.5 318.5Z" fill="#FFFFFF" fill-rule="evenodd"/><path d="M703.5 318.5C708.086 316.948 714.799 319.487 721 318.5 731.978 319.219 739.856 331.131 738.5 346 737.583 361.043 732.342 374.841 721 373.5 715.01 375.185 708.123 371.817 703.5 373.5 696.992 356.941 704.633 331.619 703.5 318.5Z" stroke="#2F528F" stroke-width="5" stroke-miterlimit="8" fill="none" fill-rule="evenodd"/><path d="M703.5 372.5C696.805 373.503 690.996 371.113 686 372.5 674.67 372.178 669.484 364.313 668.5 345 670.696 331.445 677.207 315.749 686 317.5 689.666 315.724 697.298 319.032 703.5 317.5 709.108 331.501 697.921 345.488 703.5 372.5Z" fill="#FFFFFF" fill-rule="evenodd"/><path d="M703.5 372.5C698.914 374.052 692.201 371.513 686 372.5 675.022 371.781 667.144 359.869 668.5 345 669.417 329.957 674.658 316.159 686 317.5 691.99 315.815 698.877 319.183 703.5 317.5 710.008 334.059 702.367 359.381 703.5 372.5Z" stroke="#2F528F" stroke-width="5" stroke-miterlimit="8" fill="none" fill-rule="evenodd"/><path d="M0.500053 10.7941C8.30236 8.50764 12.5152 11.0915 21.6997 10.7941 21.5339 8.45093 21.9502 4.33524 21.6997 0.500053 29.6995 3.87372 38.3274 13.4874 50.7159 21.3001 63.1044 29.1129 66.5674 32.8863 77.5001 40.5001 70.486 47.6345 56.1799 53.0863 50.1579 60.1001 44.1358 67.1139 30.77 73.1809 21.6997 80.5001 20.9353 77.2604 22.6886 73.7069 21.6997 70.206 12.4056 72.526 8.36053 68.0707 0.500053 70.206-0.203447 41.5645 2.54277 35.0498 0.500053 10.7941Z" fill="#FFFFFF" fill-rule="evenodd"/><path d="M0.500053 10.7941C10.5522 9.33107 13.668 12.0233 21.6997 10.7941 21.273 7.15164 21.9654 4.75783 21.6997 0.500053 28.7686 2.62434 37.1758 13.6222 49.5999 20.5001 62.0239 27.378 66.3025 33.3208 77.5001 40.5001 72.8227 45.5774 59.7586 53.1726 51.2739 59.3001 42.7891 65.4276 28.3613 72.1426 21.6997 80.5001 21.2461 77.249 22.8638 74.7994 21.6997 70.206 16.8765 71.2428 10.9699 69.8839 0.500053 70.206-6.34821 50.1584 2.83896 26.9186 0.500053 10.7941Z" stroke="#2F5597" stroke-width="5" stroke-miterlimit="8" fill="none" fill-rule="evenodd"/><path d="M294.5 388.794C302.302 386.508 306.515 389.091 315.7 388.794 315.534 386.451 315.95 382.335 315.7 378.5 323.699 381.874 332.327 391.487 344.716 399.3 357.104 407.113 360.567 410.886 371.5 418.5 364.486 425.634 350.18 431.086 344.158 438.1 338.136 445.114 324.77 451.181 315.7 458.5 314.935 455.26 316.689 451.707 315.7 448.206 306.406 450.526 302.361 446.071 294.5 448.206 293.797 419.565 296.543 413.05 294.5 388.794Z" fill="#FFFFFF" fill-rule="evenodd"/><path d="M294.5 388.794C304.552 387.331 307.668 390.023 315.7 388.794 315.273 385.152 315.965 382.758 315.7 378.5 322.769 380.624 331.176 391.622 343.6 398.5 356.024 405.378 360.303 411.321 371.5 418.5 366.823 423.577 353.759 431.173 345.274 437.3 336.789 443.428 322.361 450.143 315.7 458.5 315.246 455.249 316.864 452.799 315.7 448.206 310.876 449.243 304.97 447.884 294.5 448.206 287.652 428.158 296.839 404.919 294.5 388.794Z" stroke="#2F5597" stroke-width="5" stroke-miterlimit="8" fill="none" fill-rule="evenodd"/></g></svg>